<svg xmlns="http://www.w3.org/2000/svg" width="57" height="56" viewBox="0 0 57 56" fill="none">
  <path d="M28.736 19.6601H24.073V26.3311H28C31.036 26.3311 32.71 25.0931 32.71 22.8791C32.71 20.8051 31.27 19.6601 28.736 19.6601ZM24.073 28.9791V36.3321H28.908C32.068 36.3321 33.743 35.0471 33.743 32.6321C33.743 30.2171 32.022 28.9791 28.704 28.9791H24.073Z" fill="white"/>
  <path fill-rule="evenodd" clip-rule="evenodd" d="M13.3 7C10.333 7 8.138 9.633 8.236 12.489C8.331 15.232 8.208 18.785 7.326 21.683C6.44 24.588 4.945 26.425 2.5 26.662V29.338C4.945 29.574 6.44 31.411 7.326 34.318C8.208 37.215 8.331 40.768 8.236 43.511C8.138 46.367 10.333 49 13.3 49H43.703C46.67 49 48.865 46.367 48.767 43.511C48.673 40.768 48.795 37.215 49.677 34.317C50.563 31.411 52.056 29.574 54.5 29.338V26.662C52.056 26.426 50.563 24.589 49.678 21.682C48.795 18.785 48.673 15.232 48.768 12.489C48.864 9.633 46.67 7 43.702 7H13.3ZM37.326 32.849C37.326 36.781 34.431 39.165 29.628 39.165H20.568V16.827H29.581C33.586 16.827 36.215 19.025 36.215 22.399C36.215 24.768 34.447 26.889 32.194 27.26V27.384C35.261 27.724 37.326 29.877 37.326 32.849Z" fill="white"/>
</svg>