<svg xmlns="http://www.w3.org/2000/svg" width="57" height="56" viewBox="0 0 57 56" fill="none">
  <path d="M18.9719 3H24.4309V5.291H21.2549V7.582H24.4309V9.873H18.9719V3ZM25.5229 3H30.9809V4.992H27.8049V5.391H30.9809V9.973H25.5229V7.88H28.6979V7.481H25.5229V3ZM32.0729 3H37.5309V4.992H34.3559V5.391H37.5309V9.973H32.0729V7.88H35.2489V7.481H32.0729V3Z" fill="white"/>
  <path fill-rule="evenodd" clip-rule="evenodd" d="M43.22 49.8979L46.5 13.0229H10.5L13.776 49.903L28.478 54L43.22 49.8979ZM39.774 20.5619H17.199L17.609 25.0849H34.835L34.425 29.7169H18.01L18.414 34.24H34.033L33.51 40.1069L28.483 41.469H28.479L23.459 40.109L23.139 36.5019H18.615L19.246 43.604L28.478 46.1759L28.498 46.171V46.1699L37.723 43.604L38.849 30.9319L38.959 29.7169L39.774 20.5619Z" fill="white"/>
</svg>