<svg xmlns="http://www.w3.org/2000/svg" width="57" height="56" viewBox="0 0 57 56" fill="none">
  <path d="M54.5 42.222C52.608 42.7 51.438 42.243 50.389 40.676L42.923 30.405L41.844 28.983L33.126 40.709C32.13 42.12 31.086 42.734 29.226 42.235L40.39 27.333L29.997 13.873C31.784 13.526 33.019 13.703 34.116 15.294L41.859 25.693L49.659 15.351C50.659 13.94 51.733 13.403 53.527 13.924L49.497 19.237L44.037 26.307C43.387 27.115 43.476 27.667 44.074 28.447L54.5 42.222ZM2.513 27.084L3.426 22.618C5.912 13.778 16.101 10.105 23.128 15.568C27.234 18.78 28.255 23.324 28.052 28.414H4.905C4.557 37.576 11.189 43.106 19.644 40.284C22.609 39.294 24.356 36.984 25.231 34.096C25.674 32.648 26.409 32.421 27.777 32.836C27.078 36.448 25.502 39.466 22.171 41.356C17.193 44.184 10.089 43.269 6.351 39.339C4.125 37.059 3.205 34.169 2.793 31.08C2.727 30.57 2.597 30.083 2.5 29.594C2.509 28.757 2.513 27.922 2.513 27.086V27.084ZM4.947 26.47H25.864C25.728 19.845 21.579 15.139 15.909 15.099C9.686 15.05 5.217 19.645 4.947 26.47Z" fill="white"/>
</svg>