<svg xmlns="http://www.w3.org/2000/svg" width="40" height="40" viewBox="0 0 40 40" fill="none">
  <path d="M11.8248 25.8943C13.1968 27.047 14.9843 27.5173 16.7323 27.7369C16.3348 28.174 15.9932 28.8421 15.8546 29.7552C15.3851 29.9464 14.605 30.1932 13.7756 30.1213C12.916 30.0467 11.9937 29.6294 11.3014 28.42L11.3014 28.4198L11.2991 28.4158L11.2907 28.4012C11.2834 28.3887 11.2726 28.3708 11.2585 28.3482C11.2303 28.3029 11.1885 28.2387 11.1332 28.1617C11.0229 28.0077 10.8582 27.8014 10.6407 27.5912C10.2064 27.1717 9.5534 26.7296 8.69451 26.6695L8.69452 26.6693L8.68843 26.6692L8.68593 26.7922L8.68834 26.6692L8.68821 26.6692L8.68784 26.6692L8.68667 26.6692L8.68263 26.6691L8.66816 26.6691C8.65581 26.6691 8.63821 26.6692 8.61653 26.6698C8.57328 26.6709 8.51322 26.6738 8.44585 26.6806C8.31601 26.6936 8.14036 26.7229 8.00952 26.7952C7.94286 26.832 7.87568 26.8866 7.83943 26.9678C7.80136 27.0531 7.80647 27.1471 7.84632 27.2413C7.88484 27.3323 7.95707 27.4278 8.06181 27.5299C8.16747 27.6329 8.31176 27.7481 8.5019 27.8776L8.50969 27.8829L8.51789 27.8868L8.51795 27.8869L8.518 27.8869L8.51809 27.8869L8.51821 27.887L8.51923 27.8875L8.52621 27.8911C8.53281 27.8945 8.54321 27.9002 8.55709 27.9081C8.58485 27.9241 8.62652 27.9496 8.67944 27.9862C8.78527 28.0595 8.93617 28.1777 9.11089 28.3544C9.45953 28.707 9.90463 29.2944 10.2753 30.2277L10.2773 30.2339C10.2796 30.2408 10.2829 30.2506 10.2873 30.263C10.2962 30.288 10.3096 30.3237 10.3281 30.3683C10.3652 30.4575 10.4229 30.5826 10.5066 30.7291C10.6739 31.0218 10.9457 31.401 11.3641 31.7485C12.1878 32.4325 13.5618 32.9786 15.7777 32.5349V35.1547C15.7777 35.355 15.7181 35.5566 15.5806 35.6924C15.4487 35.8227 15.2241 35.9128 14.8478 35.8547C8.3916 33.6872 3.72576 27.5866 3.72576 20.3972C3.72576 16.081 5.44037 11.9416 8.49238 8.8896C10.0036 7.37839 11.7976 6.17964 13.7721 5.36178C15.7466 4.54393 17.8628 4.12298 20 4.12298C22.1372 4.12298 24.2534 4.54393 26.2279 5.36178C28.2024 6.17964 29.9964 7.37839 31.5076 8.8896C33.0189 10.4008 34.2176 12.1949 35.0355 14.1693C35.8533 16.1438 36.2743 18.2601 36.2743 20.3972C36.2743 27.5869 31.6244 33.6715 25.1675 35.8551C24.7829 35.9209 24.5549 35.8304 24.4215 35.6985C24.2821 35.5609 24.2223 35.3554 24.2223 35.1547V30.6619C24.2223 29.2707 23.7799 28.2938 23.2407 27.72C24.9945 27.5009 26.7878 27.0383 28.1646 25.8926C29.6154 24.6853 30.5844 22.7364 30.5844 19.5774C30.5844 17.7554 29.9695 16.2845 28.9145 15.1073C29.111 14.5809 29.5957 12.9018 28.7225 10.7585L28.7008 10.7053L28.6462 10.6878L28.6086 10.8049C28.6462 10.6878 28.6461 10.6877 28.6459 10.6877L28.6457 10.6876L28.645 10.6874L28.6433 10.6869L28.6383 10.6854C28.6344 10.6843 28.629 10.6828 28.6223 10.6811C28.6088 10.6777 28.5899 10.6734 28.5653 10.669C28.5162 10.66 28.4447 10.6504 28.3502 10.6459C28.1612 10.6369 27.8808 10.6486 27.5032 10.7275C26.7559 10.8836 25.6291 11.3026 24.0776 12.3438C22.7857 11.9899 21.3844 11.8133 20 11.8133C18.6156 11.8133 17.2144 11.9899 15.9225 12.3438C14.3709 11.3026 13.2441 10.8836 12.4968 10.7275C12.1192 10.6486 11.8388 10.6369 11.6498 10.6459C11.5553 10.6504 11.4839 10.66 11.4347 10.669C11.4102 10.6734 11.3912 10.6777 11.3777 10.6811C11.371 10.6828 11.3657 10.6843 11.3617 10.6854L11.3567 10.6869L11.355 10.6874L11.3544 10.6876L11.3541 10.6877C11.354 10.6877 11.3538 10.6878 11.3915 10.8049L11.3538 10.6878L11.2992 10.7053L11.2776 10.7585C10.4044 12.9018 10.8891 14.5809 11.0855 15.1073C10.0306 16.2845 9.4156 17.7554 9.4156 19.5774C9.4156 22.7281 10.3804 24.6809 11.8248 25.8943Z" fill="url(#paint0_radial_9_455)" stroke="#9A9A9A" stroke-width="0.245958"/>
  <defs>
    <radialGradient id="paint0_radial_9_455" cx="0" cy="0" r="1" gradientUnits="userSpaceOnUse" gradientTransform="translate(35.0855 5.23076) rotate(135.657) scale(44.0216 118.734)">
      <stop offset="0.162337" stop-color="#585858"/>
      <stop offset="1" stop-color="#433D3D"/>
    </radialGradient>
  </defs>
</svg>