<svg xmlns="http://www.w3.org/2000/svg" width="57" height="56" viewBox="0 0 57 56" fill="none">
  <path fill-rule="evenodd" clip-rule="evenodd" d="M28.518 6C16.343 6 6.5 16.083 6.5 28.558C6.5 38.529 12.807 46.97 21.555 49.958C22.649 50.182 23.05 49.472 23.05 48.875C23.05 48.352 23.014 46.559 23.014 44.691C16.889 46.036 15.614 42.002 15.614 42.002C14.629 39.388 13.171 38.716 13.171 38.716C11.166 37.334 13.317 37.334 13.317 37.334C15.54 37.484 16.707 39.65 16.707 39.65C18.675 43.085 21.847 42.115 23.123 41.517C23.305 40.06 23.889 39.052 24.508 38.492C19.623 37.969 14.484 36.027 14.484 27.362C14.484 24.898 15.358 22.881 16.744 21.312C16.524 20.752 15.759 18.436 16.962 15.337C16.962 15.337 18.822 14.739 23.013 17.652C24.8064 17.1584 26.6579 16.9072 28.518 16.905C30.378 16.905 32.273 17.167 34.023 17.652C38.215 14.739 40.074 15.337 40.074 15.337C41.277 18.437 40.511 20.752 40.293 21.312C41.715 22.881 42.553 24.897 42.553 27.362C42.553 36.027 37.413 37.932 32.492 38.492C33.294 39.202 33.986 40.546 33.986 42.675C33.986 45.7 33.95 48.128 33.95 48.875C33.95 49.472 34.351 50.182 35.444 49.958C44.194 46.969 50.5 38.529 50.5 28.558C50.536 16.083 40.657 6 28.518 6Z" fill="white"/>
</svg>