<svg xmlns="http://www.w3.org/2000/svg" width="57" height="56" viewBox="0 0 57 56" fill="none">
  <path d="M13.8501 3H16.1401V5.27H18.2351V3H20.5251V9.877H18.2351V7.574H16.1401V9.877H13.8501V3ZM23.5371 5.28H21.5211V3H27.8451V5.28H25.8281V9.877H23.5381L23.5371 5.28ZM28.8481 3H31.2371L32.7061 5.416L34.1721 3H36.5621V9.877H34.2801V6.468L32.7051 8.913H32.6651L31.0901 6.468V9.877H28.8501V3H28.8481ZM37.7021 3H39.9931V7.604H43.2131V9.877H37.7031L37.7021 3Z" fill="white"/>
  <path fill-rule="evenodd" clip-rule="evenodd" d="M10.5 13.022L13.776 49.9L28.478 53.996L43.22 49.894L46.5 13.022H10.5ZM22.536 29.715L22.124 25.083H39.371L39.774 20.56H17.199L18.415 34.237H34.034L33.511 40.103L28.484 41.465L28.48 41.466L23.461 40.106L23.141 36.499H18.616L19.247 43.601L28.479 46.173L28.5 46.167L37.724 43.601L38.85 30.929L38.96 29.715H22.536Z" fill="white"/>
</svg>