<svg xmlns="http://www.w3.org/2000/svg" width="57" height="56" viewBox="0 0 57 56" fill="none">
  <path fill-rule="evenodd" clip-rule="evenodd" d="M6.5 6H50.5V50H6.5V6ZM40.136 42.886C38.096 42.886 36.943 41.822 36.057 40.376L32.697 42.327C33.911 44.726 36.391 46.556 40.231 46.556C44.159 46.556 47.083 44.516 47.083 40.794C47.083 37.341 45.099 35.804 41.586 34.298L40.553 33.855C38.779 33.087 38.011 32.585 38.011 31.345C38.011 30.341 38.778 29.573 39.989 29.573C41.176 29.573 41.941 30.073 42.65 31.345L45.87 29.277C44.508 26.882 42.618 25.967 39.99 25.967C36.297 25.967 33.934 28.327 33.934 31.429C33.934 34.795 35.916 36.387 38.9 37.659L39.933 38.102C41.819 38.927 42.943 39.429 42.943 40.847C42.943 42.03 41.849 42.886 40.136 42.886ZM24.112 42.86C22.692 42.86 22.101 41.886 21.452 40.733L18.085 42.771C19.06 44.835 20.978 46.548 24.288 46.548C27.952 46.548 30.462 44.599 30.462 40.318V26.203H26.327V40.263C26.327 42.329 25.47 42.86 24.112 42.86Z" fill="white"/>
</svg>