<svg xmlns="http://www.w3.org/2000/svg" width="40" height="40" viewBox="0 0 40 40" fill="none">
  <path d="M31.5556 31.6889H31.6889V31.5556V22.1333C31.6889 20.5609 31.0642 19.0529 29.9524 17.941C28.8405 16.8291 27.3324 16.2044 25.76 16.2044C24.3381 16.2044 22.7093 16.9955 21.7689 18.2211V16.6756V16.5422H21.6356H16.6756H16.5422V16.6756V31.5556V31.6889H16.6756H21.6356H21.7689V31.5556V22.7911C21.7689 21.4946 22.8127 20.4356 24.1067 20.4356C24.7314 20.4356 25.3305 20.6837 25.7723 21.1255C26.214 21.5672 26.4622 22.1664 26.4622 22.7911V31.5556V31.6889H26.5956H31.5556ZM13.3689 31.6889H13.5022V31.5556V16.6756V16.5422H13.3689H8.44444H8.31111V16.6756V31.5556V31.6889H8.44444H13.3689ZM32.4444 4.13333C33.3521 4.13333 34.2225 4.49389 34.8643 5.13568C35.5061 5.77747 35.8667 6.64793 35.8667 7.55556V32.4444C35.8667 33.3521 35.5061 34.2225 34.8643 34.8643C34.2225 35.5061 33.3521 35.8667 32.4444 35.8667H7.55556C6.64793 35.8667 5.77747 35.5061 5.13568 34.8643C4.49389 34.2225 4.13333 33.3521 4.13333 32.4444V7.55556C4.13333 6.64793 4.49389 5.77747 5.13568 5.13568C5.77747 4.49389 6.64793 4.13333 7.55556 4.13333H32.4444ZM10.8978 14.0178C11.7253 14.0178 12.5188 13.6891 13.104 13.104C13.6891 12.5188 14.0178 11.7253 14.0178 10.8978C14.0178 9.17184 12.6258 7.76 10.8978 7.76C10.0656 7.76 9.26748 8.09059 8.67903 8.67903C8.09059 9.26748 7.76 10.0656 7.76 10.8978C7.76 12.6258 9.17184 14.0178 10.8978 14.0178Z" fill="url(#paint0_radial_9_447)" stroke="#9A9A9A" stroke-width="0.266667"/>
  <defs>
    <radialGradient id="paint0_radial_9_447" cx="0" cy="0" r="1" gradientUnits="userSpaceOnUse" gradientTransform="translate(34.72 5.23076) rotate(134.954) scale(43.4795 117.302)">
      <stop offset="0.162337" stop-color="#585858"/>
      <stop offset="1" stop-color="#433D3D"/>
    </radialGradient>
  </defs>
</svg>