<svg xmlns="http://www.w3.org/2000/svg" width="20" height="21" viewBox="0 0 20 21" fill="none">
  <path d="M12.7063 13.925L14.1063 12.525C14.2948 12.3388 14.5334 12.2113 14.793 12.158C15.0526 12.1048 15.3221 12.128 15.5688 12.225L17.275 12.9062C17.5243 13.0074 17.738 13.1801 17.8893 13.4026C18.0405 13.625 18.1226 13.8873 18.125 14.1562V17.2812C18.1236 17.4642 18.0851 17.645 18.0119 17.8128C17.9388 17.9805 17.8324 18.1317 17.6993 18.2572C17.5662 18.3828 17.409 18.4801 17.2373 18.5433C17.0655 18.6065 16.8828 18.6343 16.7 18.625C4.74377 17.8812 2.33127 7.75624 1.87502 3.88124C1.85384 3.69096 1.87319 3.49834 1.9318 3.31606C1.99041 3.13379 2.08695 2.96599 2.21506 2.82371C2.34318 2.68142 2.49997 2.56787 2.67512 2.49053C2.85027 2.4132 3.03981 2.37382 3.23127 2.375H6.25002C6.5194 2.37579 6.78239 2.45716 7.00514 2.60864C7.2279 2.76011 7.40025 2.97477 7.50002 3.225L8.18127 4.93125C8.28143 5.17691 8.30698 5.44665 8.25474 5.70675C8.2025 5.96686 8.07477 6.20581 7.88752 6.39375L6.48752 7.79375C6.48752 7.79375 7.29377 13.25 12.7063 13.925Z" fill="black"/>
</svg>