<svg xmlns="http://www.w3.org/2000/svg" width="57" height="56" viewBox="0 0 57 56" fill="none">
  <path d="M28.4999 32.397C30.9619 32.397 32.9569 30.428 32.9569 28C32.9569 25.572 30.9619 23.603 28.4999 23.603C26.0399 23.603 24.0439 25.571 24.0439 28C24.0439 30.428 26.0389 32.397 28.4999 32.397Z" fill="white"/>
  <path fill-rule="evenodd" clip-rule="evenodd" d="M23.954 20.23C23.124 21.43 22.314 22.7 21.535 24.032C20.7762 25.3275 20.0664 26.6511 19.407 28C20.0664 29.3488 20.7762 30.6724 21.535 31.968C22.2935 33.2651 23.1004 34.5333 23.954 35.77C25.4668 35.8813 26.9831 35.9367 28.5 35.936C30.059 35.936 31.58 35.879 33.048 35.77C33.878 34.57 34.688 33.3 35.467 31.968C36.2258 30.6724 36.9357 29.3488 37.595 28C36.9357 26.6511 36.2258 25.3275 35.467 24.032C34.7082 22.7348 33.9009 21.4666 33.047 20.23C31.5339 20.1188 30.0172 20.0635 28.5 20.064C26.9831 20.0632 25.4668 20.1186 23.954 20.23ZM21.165 20.504C20.1189 22.1173 19.1473 23.7777 18.253 25.48C17.6614 24.1012 17.1362 22.6949 16.679 21.266C18.1616 20.9422 19.6586 20.6879 21.165 20.504ZM25.589 17.984C27.5294 17.8969 29.4726 17.8969 31.413 17.984C30.4972 16.7879 29.5251 15.6359 28.5 14.532C27.4753 15.6359 26.5035 16.7879 25.588 17.984H25.589ZM26.984 12.99C25.4624 14.625 24.0487 16.3574 22.752 18.176C20.5098 18.3749 18.2827 18.7166 16.084 19.199C15.8594 18.3304 15.6739 17.4522 15.528 16.567C15.174 14.387 15.166 12.549 15.469 11.151C15.772 9.75295 16.355 8.91395 17.088 8.49595C17.82 8.07895 18.848 7.99995 20.228 8.43995C21.606 8.87995 23.215 9.80595 24.952 11.2C25.6554 11.7663 26.3334 12.3636 26.984 12.99ZM30.017 12.99C31.5387 14.6253 32.9524 16.358 34.249 18.177C36.619 18.393 38.861 18.74 40.917 19.2C41.152 18.285 41.337 17.405 41.473 16.567C41.827 14.387 41.836 12.549 41.533 11.151C41.23 9.75195 40.647 8.91295 39.913 8.49595C39.181 8.07895 38.153 7.99995 36.775 8.43995C35.395 8.87995 33.787 9.80595 32.05 11.2C31.3462 11.7663 30.6679 12.3636 30.017 12.99ZM43.024 19.727C43.274 18.752 43.474 17.809 43.62 16.907C43.999 14.575 44.037 12.45 43.658 10.702C43.28 8.95395 42.452 7.46495 41.001 6.63895C39.55 5.81195 37.829 5.84895 36.105 6.39895C34.382 6.94895 32.536 8.04495 30.679 9.53495C29.9247 10.1422 29.1977 10.7825 28.5 11.454C27.8027 10.7821 27.076 10.1415 26.322 9.53395C24.465 8.04595 22.62 6.94995 20.896 6.39995C19.173 5.84995 17.452 5.81195 16.001 6.63895C14.55 7.46495 13.722 8.95495 13.343 10.702C12.964 12.45 13.003 14.575 13.382 16.907C13.528 17.809 13.727 18.752 13.977 19.727C12.997 20.001 12.069 20.302 11.203 20.628C8.967 21.471 7.083 22.5 5.738 23.698C4.393 24.895 3.5 26.348 3.5 28C3.5 29.653 4.393 31.105 5.738 32.303C7.082 33.5 8.967 34.529 11.203 35.372C12.069 35.698 12.996 35.999 13.977 36.273C13.727 37.248 13.528 38.19 13.382 39.093C13.003 41.425 12.964 43.55 13.343 45.298C13.722 47.045 14.55 48.535 16.001 49.361C17.451 50.188 19.173 50.151 20.896 49.601C22.62 49.051 24.466 47.955 26.323 46.465C27.077 45.8577 27.8037 45.2174 28.501 44.546C29.1981 45.2181 29.9248 45.8587 30.679 46.466C32.536 47.955 34.382 49.05 36.105 49.601C37.829 50.151 39.55 50.188 41.001 49.361C42.451 48.535 43.28 47.045 43.658 45.298C44.038 43.55 43.998 41.425 43.62 39.093C43.4636 38.1445 43.2647 37.2036 43.024 36.273C43.961 36.0131 44.8862 35.7124 45.797 35.372C48.033 34.529 49.917 33.5 51.262 32.302C52.607 31.106 53.5 29.654 53.5 28C53.5 26.347 52.607 24.895 51.262 23.698C49.918 22.5 48.033 21.471 45.797 20.628C44.8863 20.2876 43.961 19.9873 43.024 19.728V19.727ZM40.323 21.266C38.84 20.9422 37.3427 20.6879 35.836 20.504C36.8821 22.1173 37.8537 23.7777 38.748 25.48C39.3399 24.1012 39.8655 22.6949 40.323 21.266ZM39.998 28C40.9447 25.9857 41.7584 23.9116 42.434 21.791C43.354 22.048 44.218 22.329 45.021 22.632C47.112 23.42 48.73 24.332 49.806 25.29C50.881 26.248 51.326 27.165 51.326 28C51.326 28.835 50.881 29.752 49.806 30.71C48.73 31.668 47.112 32.58 45.021 33.368C44.218 33.671 43.353 33.952 42.434 34.208C41.7585 32.0876 40.9447 30.0139 39.998 28ZM38.748 30.52C37.8539 32.2222 36.8822 33.8826 35.836 35.496C37.3427 35.312 38.84 35.0578 40.323 34.734C39.8655 33.305 39.3399 31.8987 38.748 30.52ZM40.918 36.8C38.861 37.26 36.619 37.607 34.249 37.824C32.9523 39.6426 31.5386 41.3749 30.017 43.01C30.6679 43.6363 31.3463 44.2336 32.05 44.8C33.787 46.194 35.396 47.12 36.775 47.56C38.153 48 39.181 47.921 39.914 47.504C40.647 47.087 41.23 46.248 41.533 44.849C41.836 43.451 41.827 41.614 41.473 39.433C41.3271 38.5477 41.1416 37.6695 40.917 36.801L40.918 36.8ZM28.5 41.469C29.5247 40.365 30.4965 39.213 31.412 38.017C29.4716 38.1042 27.5284 38.1042 25.588 38.017C26.5035 39.213 27.4753 40.365 28.5 41.469ZM21.164 35.497C20.118 33.8835 19.1464 32.2231 18.252 30.521C17.6604 31.8997 17.1352 33.306 16.678 34.735C18.1605 35.0593 19.6575 35.3136 21.164 35.497ZM16.084 36.802C18.14 37.262 20.382 37.608 22.752 37.825C24.0484 39.6435 25.4617 41.3759 26.983 43.011C26.3324 43.6373 25.6544 44.2346 24.951 44.801C23.214 46.195 21.605 47.121 20.226 47.561C18.847 48.001 17.819 47.922 17.086 47.505C16.354 47.088 15.771 46.249 15.468 44.85C15.165 43.452 15.173 41.614 15.528 39.434C15.6732 38.5487 15.8593 37.6705 16.084 36.802ZM14.567 34.21C13.6918 33.9679 12.8277 33.6876 11.977 33.37C9.887 32.581 8.269 31.67 7.194 30.711C6.118 29.753 5.673 28.836 5.673 28.001C5.673 27.166 6.118 26.249 7.193 25.291C8.269 24.333 9.886 23.421 11.978 22.633C12.8282 22.3147 13.6921 22.0341 14.567 21.792C15.2429 23.9123 16.0569 25.9861 17.004 28C16.0572 30.0145 15.2425 32.089 14.567 34.21ZM28.5 24.675C26.64 24.675 25.13 26.164 25.13 28C25.13 29.836 26.64 31.324 28.5 31.324C30.361 31.324 31.87 29.836 31.87 28C31.87 26.164 30.361 24.675 28.5 24.675ZM22.957 28C22.957 24.98 25.439 22.53 28.5 22.53C31.562 22.53 34.044 24.98 34.044 28C34.044 31.02 31.562 33.47 28.5 33.47C25.439 33.47 22.957 31.02 22.957 28Z" fill="white"/>
</svg>