<svg xmlns="http://www.w3.org/2000/svg" width="57" height="56" viewBox="0 0 57 56" fill="none">
  <path fill-rule="evenodd" clip-rule="evenodd" d="M28.5 13C21.567 13 17.233 16.444 15.5 23.333C18.1 19.889 21.133 18.597 24.6 19.458C26.578 19.949 27.992 21.376 29.556 22.953C32.106 25.524 35.056 28.5 41.5 28.5C48.433 28.5 52.767 25.056 54.5 18.167C51.9 21.611 48.867 22.903 45.4 22.042C43.422 21.551 42.008 20.124 40.444 18.547C37.894 15.976 34.944 13 28.5 13ZM15.5 28.5C8.567 28.5 4.233 31.944 2.5 38.833C5.1 35.389 8.133 34.097 11.6 34.958C13.578 35.45 14.992 36.876 16.556 38.453C19.106 41.024 22.056 44 28.5 44C35.433 44 39.767 40.556 41.5 33.667C38.9 37.111 35.867 38.403 32.4 37.542C30.422 37.051 29.008 35.624 27.444 34.047C24.894 31.476 21.944 28.5 15.5 28.5Z" fill="white"/>
</svg>